# xmcd
#
# Track frame offsets:
#	150
#	11990
#	28381
#	44505
#	56328
#	71933
#	94105
#	109953
#	124763
#	151727
#	165969
#	183028
#	200972
#
# Disc length: 2881 seconds
# Revision: 0
# Processed by: cddbd v1.5.2PL0 Copyright (c) Steve Scherf et al.
# Submitted via: dBpowerAMP V12.0
#
DISCID=b50b3f0d
DTITLE=Various Artist - Tall Fiddler
DYEAR=1900
DGENRE=Bluegrass
TTITLE0=Michael Cleveland feat. Flamekeeper - Arkansas
TTITLE1=Michael Cleveland feat. The Travelin' McCourys - High Lonesome Sound
TTITLE2=Michael Cleveland feat. Tim O'Brien - 20 Cent Cotton and 90 Cent Meat
TTITLE3=Michael Cleveland feat. Flamekeeper and Del McCoury - Beauty of My Dreams
TTITLE4=Michael Cleveland - 5 String Swing
TTITLE5=Michael Cleveland feat. Tim O'Brien - Old Time River Man
TTITLE6=Michael Cleveland feat. Sam Bush - Tennessee Plates
TTITLE7=Michael Cleveland feat. Flamekeeper and Tommy Emmanuel - Tall Fiddler
TTITLE8=Michael Cleveland with Béla Fleck - Tarnation
TTITLE9=Michael Cleveland feat. Flamekeeper and Dan Tyminski - Son of a Ramblin' Man
TTITLE10=Michael Cleveland feat. Flkamekeeper, Dan tyminski and Jerry Douglas - Mountain Heartache
TTITLE11=Michael Cleveland feat. Flamekeeper and Jerry Douglas - Me And Helen
TTITLE12=Michael Cleveland with Looper, White, Bush and Bales - Lazy Katie
EXTD=
EXTT0=
EXTT1=
EXTT2=
EXTT3=
EXTT4=
EXTT5=
EXTT6=
EXTT7=
EXTT8=
EXTT9=
EXTT10=
EXTT11=
EXTT12=
PLAYORDER=
